<?xml version="1.0" encoding="UTF-8"?>
<svg xmlns="http://www.w3.org/2000/svg" version="1.1" viewBox="0 0 32 32">
  <!-- Generator: Adobe Illustrator 29.7.1, SVG Export Plug-In . SVG Version: 2.1.1 Build 8)  -->
  <defs>
    <style>
      .st0, .st1 {
        fill: none;
        stroke: #000;
      }

      .st0, .st2 {
        stroke-width: 1.5px;
      }

      .st1 {
        stroke-width: 1.1px;
      }

      .st2 {
        stroke: #fff;
      }

      .st2, .st3 {
        fill: #fff;
      }
    </style>
  </defs>
  <g id="Layer_2">
    <circle class="st3" cx="16" cy="16" r="15.6"/>
  </g>
  <g id="Layer_1">
    <g id="Layer_11" data-name="Layer_1">
      <path class="st2" d="M9.7,4.6l1.1,4.6-2.5-1.5-1.4-2.1,2.8-1Z"/>
      <path class="st2" d="M12.4,2.9l2.9.8-.3,2.2-1.4,2.2s-1.2-5.2-1.2-5.2Z"/>
      <path d="M22.4,15.8h3.5"/>
    </g>
    <g id="Layer_21" data-name="Layer_2">
      <g>
        <path d="M12.9,31.3s0,0,0,0c0,0,0,0,0,0Z"/>
        <path d="M16,.4C7.4.4.4,7.4.4,16s2.9,10.4,7.2,13.1l7-5.9-2.5-11,.4-.4,10.7-1.9,2.6,2.1v2.5l-1.4,2.7-5.8.7,3.4,7.5-1.7,5.5c6.6-1.8,11.4-7.9,11.4-15S24.6.4,16,.4Z"/>
        <path d="M15.8,31.6c0,0,.1,0,.2,0s0,0,0,0c0,0-.1,0-.2,0Z"/>
        <path d="M14.7,31.5c-.2,0-.3,0-.5,0,.2,0,.3,0,.5,0Z"/>
      </g>
      <path class="st0" d="M16,13.6c.1.6.5,1.7,1.1,1.7s1.5-.2,1.9-.3c0-.6.2-2,0-2.6"/>
      <line class="st1" x1="22.4" y1="15.8" x2="25.9" y2="15.8"/>
    </g>
    <path class="st2" d="M9.7,4.6l1.1,4.6-2.5-1.5-1.4-2.1,2.8-1Z"/>
    <path class="st2" d="M12.4,2.9l2.9.8-.3,2.2-1.4,2.2s-1.2-5.2-1.2-5.2Z"/>
  </g>
</svg>