<?xml version="1.0" encoding="UTF-8"?>
<svg xmlns="http://www.w3.org/2000/svg" xmlns:xlink="http://www.w3.org/1999/xlink" version="1.1" viewBox="0 0 32 32">
  <!-- Generator: Adobe Illustrator 29.7.1, SVG Export Plug-In . SVG Version: 2.1.1 Build 8)  -->
  <defs>
    <style>
      .st0 {
        mask: url(#mask);
      }

      .st1 {
        fill: none;
        stroke-width: 1.1px;
      }

      .st1, .st2 {
        stroke: #000;
      }

      .st3, .st4 {
        stroke: #fff;
      }

      .st3, .st4, .st2 {
        fill: #fff;
      }

      .st3, .st2 {
        stroke-width: 1.5px;
      }
    </style>
    <mask id="mask" x=".4" y=".3" width="31.3" height="31.3" maskUnits="userSpaceOnUse">
      <g id="mask0_2_23">
        <circle cx="16" cy="16" r="15.6"/>
      </g>
    </mask>
  </defs>
  <g id="Layer_1">
    <circle cx="16" cy="16" r="15.6"/>
    <path class="st3" d="M9.7,4.6l1.1,4.6-2.5-1.5-1.4-2.1,2.8-1Z"/>
    <path class="st3" d="M12.4,2.9l2.9.8-.3,2.2-1.4,2.2-1.2-5.2Z"/>
    <g class="st0">
      <path d="M22.4,15.8h3.5"/>
    </g>
  </g>
  <g id="Layer_2">
    <path class="st4" d="M12.6,12.4l2.5,11-6.7,5.7c2.3,1.3,4.9,2,7.7,2s2.5-.2,3.7-.5l1.6-5.1-3.6-7.9,6.2-.8,1.2-2.4v-2.1l-2.2-1.8-10.3,1.8Z"/>
    <path class="st2" d="M16,13.6c.1.6.5,1.7,1.1,1.7s1.5-.2,1.9-.3c0-.6.2-2,0-2.6"/>
    <line class="st1" x1="22.4" y1="15.8" x2="25.9" y2="15.8"/>
  </g>
</svg>